<svg version="1.0" xmlns="http://www.w3.org/2000/svg"
 width="1567" height="974" viewBox="295 664 1567 974"
 preserveAspectRatio="xMidYMid meet">
<g transform="translate(0.000000,2156.000000) scale(0.100000,-0.100000)"
fill="#265B49" stroke="none">
<path d="M9780 14424 c-132 -13 -318 -71 -438 -136 -239 -130 -451 -353 -563
-592 -69 -149 -98 -251 -124 -436 -19 -132 -19 -198 0 -336 29 -216 103 -423
206 -576 22 -31 39 -64 39 -72 0 -8 -17 -42 -39 -75 -77 -120 -156 -306 -182
-431 -16 -78 -39 -263 -39 -320 0 -79 26 -262 50 -353 25 -94 41 -139 86 -235
19 -40 34 -78 34 -84 0 -15 67 -123 116 -188 62 -82 219 -230 299 -282 124
-82 269 -146 395 -176 109 -27 159 -32 288 -32 261 0 472 64 685 209 39 27 98
72 130 100 32 28 62 51 68 51 5 0 42 -27 82 -61 99 -84 167 -129 267 -177 186
-89 330 -122 532 -122 281 0 518 80 743 249 134 101 319 322 359 427 8 21 34
86 58 144 25 58 48 119 52 135 4 17 11 48 17 70 89 369 21 772 -182 1078 -22
32 -39 63 -39 68 0 6 13 29 29 52 40 59 103 180 134 259 186 470 97 1024 -224
1399 -87 102 -111 123 -258 236 -89 69 -300 157 -466 194 -80 19 -360 18 -440
0 -240 -54 -436 -151 -592 -293 -29 -26 -61 -48 -69 -48 -9 0 -44 24 -78 54
-156 137 -360 238 -566 282 -68 15 -292 25 -370 18z m1040 -917 c6 -31 15 -82
20 -112 6 -30 14 -81 20 -112 24 -142 101 -332 184 -457 60 -92 192 -222 288
-287 48 -33 89 -59 92 -59 3 0 33 -13 68 -30 56 -26 198 -69 446 -135 26 -8
29 -22 5 -29 -10 -3 -67 -19 -128 -36 -60 -17 -139 -39 -175 -50 -36 -11 -68
-20 -72 -20 -3 0 -40 -16 -80 -35 -144 -67 -288 -178 -375 -288 -42 -53 -133
-192 -133 -202 0 -2 -13 -32 -29 -67 -44 -94 -70 -190 -101 -368 -6 -36 -15
-87 -20 -115 -5 -27 -12 -69 -15 -93 -4 -26 -12 -42 -18 -39 -17 5 -37 48 -37
80 0 16 -4 47 -9 70 -5 23 -14 74 -21 112 -50 309 -150 517 -334 701 -119 118
-272 211 -416 254 -25 7 -64 19 -87 26 -63 20 -194 56 -226 61 -26 5 -44 20
-34 29 2 2 60 20 128 39 183 52 200 57 244 71 56 17 179 77 245 119 127 80
301 284 374 440 35 74 84 222 97 293 5 28 14 78 19 110 6 31 15 84 21 117 18
103 43 108 59 12z"/>
<path d="M4088 8777 c-46 -25 -78 -48 -78 -57 0 -15 61 -169 80 -202 6 -10 10
-26 10 -35 0 -17 -79 -227 -121 -320 -10 -24 -19 -47 -19 -53 0 -6 -4 -18 -9
-28 -5 -9 -55 -134 -111 -277 -56 -143 -106 -269 -111 -280 -5 -11 -18 -47
-30 -80 -54 -146 -119 -230 -205 -266 -39 -15 -54 -27 -54 -40 0 -18 10 -19
174 -19 145 0 175 2 180 15 4 10 -7 21 -33 35 -64 32 -66 83 -9 230 6 14 31
79 57 145 l47 120 286 3 287 2 16 -23 c31 -48 136 -323 142 -374 5 -48 4 -54
-25 -82 -17 -17 -38 -31 -46 -31 -9 0 -16 -8 -16 -20 0 -19 7 -20 260 -20 248
0 260 1 260 19 0 13 -16 25 -55 41 -67 27 -112 78 -156 176 -16 38 -36 83 -44
99 -7 17 -32 77 -55 135 -23 58 -50 123 -60 145 -10 22 -47 112 -83 200 -115
284 -159 389 -177 430 -10 22 -41 99 -70 170 -29 72 -60 148 -70 170 -10 22
-25 57 -33 78 -20 47 -31 46 -129 -6z m151 -617 c32 -80 82 -201 110 -269 28
-69 51 -131 51 -138 0 -10 -51 -13 -255 -13 -140 0 -255 2 -255 5 0 7 70 187
81 207 5 10 9 22 9 28 0 6 9 29 19 53 10 23 42 103 71 177 74 190 69 182 91
134 10 -21 45 -104 78 -184z"/>
<path d="M13504 8737 c-28 -17 -83 -48 -122 -67 -39 -19 -71 -37 -71 -40 -1
-3 13 -11 29 -17 62 -23 61 -19 57 -696 -2 -456 -6 -622 -16 -650 -14 -43 -66
-107 -87 -107 -8 0 -14 -4 -14 -10 0 -6 77 -10 210 -10 133 0 210 4 210 10 0
6 -7 10 -15 10 -27 0 -82 66 -94 113 -8 32 -11 259 -11 771 0 574 -3 726 -12
726 -7 0 -36 -15 -64 -33z"/>
<path d="M17174 8737 c-28 -17 -80 -48 -117 -67 -37 -19 -67 -38 -67 -42 0 -4
8 -9 19 -13 10 -3 26 -14 35 -24 14 -16 16 -82 19 -663 2 -630 2 -646 22 -668
37 -41 180 -100 315 -130 59 -13 243 -9 320 8 196 41 363 199 409 387 15 61
16 245 0 294 -55 183 -130 284 -268 365 -158 92 -384 103 -557 27 -26 -12 -48
-21 -50 -21 -2 0 -5 129 -6 287 -2 180 -7 287 -13 289 -5 2 -33 -11 -61 -29z
m388 -531 c83 -22 137 -55 213 -131 120 -120 185 -288 185 -474 0 -228 -93
-379 -270 -441 -61 -22 -69 -22 -145 -10 -96 15 -184 54 -248 110 l-47 42 0
417 c0 386 1 419 18 433 66 58 191 81 294 54z"/>
<path d="M5520 8731 c-14 -5 -50 -14 -80 -21 -71 -17 -197 -82 -257 -134 -144
-122 -227 -264 -274 -466 -17 -74 -17 -299 -1 -380 34 -163 104 -300 209 -406
152 -155 326 -224 561 -224 195 0 350 48 456 141 24 21 47 39 50 39 3 0 6 -29
6 -64 0 -103 -13 -96 191 -96 166 0 179 1 179 18 0 13 -13 22 -49 31 -27 7
-59 24 -72 37 l-24 26 -5 401 -5 402 -380 0 -380 0 0 -30 0 -30 274 -3 274 -2
-6 -168 c-10 -260 -57 -414 -160 -521 -59 -60 -121 -92 -219 -111 -59 -12 -77
-11 -144 3 -107 23 -178 61 -261 140 -190 180 -292 465 -280 778 5 157 36 281
87 359 6 8 20 29 31 47 28 43 98 99 161 128 154 69 339 52 504 -46 83 -49 210
-180 279 -286 61 -93 75 -108 75 -75 0 18 -103 434 -114 463 -5 10 -32 19 -84
27 -42 7 -105 17 -138 22 -72 12 -368 12 -404 1z"/>
<path d="M7330 8690 c0 -5 6 -10 13 -10 20 0 63 -50 81 -94 14 -34 16 -114 16
-670 -1 -630 -1 -631 -23 -676 -12 -25 -36 -54 -54 -65 -18 -11 -32 -23 -33
-28 0 -9 728 -2 790 8 25 4 49 11 55 16 5 5 18 9 29 9 11 0 58 19 105 42 452
222 542 918 164 1279 -104 99 -209 153 -365 188 -62 14 -778 15 -778 1z m636
-24 c89 -19 180 -65 251 -127 54 -47 143 -149 143 -163 0 -3 13 -27 28 -53 82
-139 123 -292 129 -483 9 -257 -40 -411 -172 -539 -50 -49 -133 -101 -160
-101 -8 0 -15 -4 -15 -10 0 -5 -18 -10 -41 -10 -22 0 -50 -5 -61 -11 -27 -15
-202 6 -284 33 -34 12 -82 36 -108 55 l-46 33 0 688 c0 379 3 692 7 695 12 12
266 7 329 -7z"/>
<path d="M14510 8693 c0 -5 15 -15 32 -24 21 -10 41 -33 58 -65 l25 -49 0
-635 c0 -600 -1 -637 -19 -670 -23 -44 -66 -90 -83 -90 -7 0 -13 -4 -13 -10 0
-6 88 -10 244 -10 153 0 247 4 251 10 4 6 -26 10 -82 10 -48 0 -94 4 -101 9
-10 6 -12 142 -10 702 l3 694 23 43 c13 24 36 51 53 60 16 9 29 20 29 25 0 4
-92 7 -205 7 -113 0 -205 -3 -205 -7z"/>
<path d="M11554 8387 c-38 -34 -102 -91 -142 -126 -40 -35 -71 -69 -69 -75 2
-6 30 -13 63 -16 l59 -5 5 -465 c5 -446 6 -466 26 -500 45 -77 115 -95 319
-82 l110 7 3 35 c4 60 -8 65 -67 26 -65 -44 -108 -53 -149 -32 -57 30 -57 24
-60 506 -2 245 -1 459 3 477 l6 33 124 0 c117 0 125 1 139 22 32 45 25 48
-116 48 -73 0 -139 4 -146 8 -9 6 -12 30 -11 73 3 106 0 129 -15 129 -7 0 -44
-28 -82 -63z"/>
<path d="M9305 8250 c-11 -5 -33 -9 -49 -9 -90 -2 -274 -138 -337 -249 -52
-92 -78 -195 -78 -307 0 -231 120 -425 324 -520 154 -71 388 -64 562 17 44 21
133 93 133 108 0 13 -62 110 -71 110 -4 0 -25 -33 -47 -73 -23 -41 -58 -89
-78 -107 -47 -41 -134 -80 -177 -80 -48 0 -132 25 -180 53 -120 71 -117 247 7
412 91 122 267 282 426 389 91 62 120 85 120 96 0 14 -109 90 -167 116 -32 15
-87 33 -123 40 -71 15 -233 18 -265 4z m234 -59 c44 -23 127 -100 158 -148 20
-30 21 -28 -103 -118 -257 -185 -388 -331 -436 -484 -12 -39 -25 -71 -29 -71
-13 0 -70 131 -90 207 -22 87 -27 292 -8 352 55 174 148 269 294 296 70 13
145 1 214 -34z"/>
<path d="M10585 8248 c-22 -6 -49 -14 -60 -18 -11 -5 -40 -15 -63 -24 -24 -9
-68 -32 -98 -51 -30 -19 -59 -35 -64 -35 -6 0 -10 27 -10 60 0 68 -7 72 -60
37 -19 -13 -62 -39 -95 -57 -100 -54 -115 -64 -115 -72 0 -4 11 -8 23 -8 13 0
32 -9 43 -21 18 -20 19 -41 19 -398 l0 -376 -25 -49 c-17 -32 -37 -55 -58 -65
-17 -9 -32 -19 -32 -23 0 -5 95 -8 210 -8 116 0 210 3 210 8 0 4 -15 14 -32
23 -21 10 -41 33 -58 65 l-25 49 0 335 0 335 26 56 c85 180 263 254 440 183
107 -43 163 -117 189 -249 16 -80 8 -624 -9 -678 -14 -43 -66 -107 -87 -107
-8 0 -14 -4 -14 -10 0 -6 77 -10 210 -10 133 0 210 4 210 10 0 6 -7 10 -15 10
-27 0 -80 64 -92 113 -9 33 -13 140 -13 345 -1 304 -6 356 -44 446 -36 86
-112 151 -212 181 -56 17 -235 18 -299 3z"/>
<path d="M12395 8248 c-53 -14 -142 -47 -185 -71 -146 -80 -147 -71 16 -174
20 -13 28 -9 100 52 93 77 181 134 232 147 116 31 194 17 259 -49 40 -39 43
-46 43 -95 0 -106 -71 -173 -251 -239 -46 -17 -118 -41 -159 -55 -98 -33 -102
-34 -194 -79 -95 -46 -137 -81 -174 -144 -24 -41 -27 -56 -26 -131 1 -101 17
-143 77 -203 64 -64 121 -87 217 -87 93 0 166 23 250 80 59 40 179 161 220
223 14 20 28 37 33 37 4 0 7 -72 7 -160 l0 -160 145 0 c80 0 145 3 145 8 0 4
-15 17 -34 29 -67 43 -70 60 -77 428 -3 182 -10 346 -16 365 -38 131 -148 227
-315 274 -63 18 -246 20 -313 4z m450 -498 c-16 -117 -21 -138 -51 -224 -33
-96 -89 -191 -143 -246 -67 -67 -103 -84 -182 -85 -56 0 -73 4 -115 30 -28 18
-63 52 -82 80 -32 48 -34 53 -30 130 2 64 9 91 32 135 59 116 118 152 324 203
132 33 226 68 239 90 16 26 20 -30 8 -113z"/>
<path d="M16090 8248 c-89 -26 -157 -53 -202 -79 -27 -16 -52 -29 -57 -29 -11
0 -41 -34 -41 -46 0 -13 126 -94 146 -94 9 0 51 28 93 63 88 73 149 111 223
138 93 34 191 19 252 -39 48 -45 62 -91 45 -150 -25 -89 -120 -152 -339 -225
-221 -74 -303 -113 -376 -179 -107 -98 -122 -236 -40 -366 27 -44 91 -92 145
-110 43 -15 167 -15 212 -1 117 37 221 115 321 240 l73 91 3 -161 2 -161 150
0 c83 0 150 3 150 8 0 4 -15 14 -33 23 -20 10 -41 33 -57 65 -25 48 -25 49
-30 389 l-5 340 -34 65 c-54 106 -153 179 -294 215 -66 17 -252 19 -307 3z
m452 -469 c-11 -224 -141 -490 -278 -566 -91 -50 -239 -6 -301 90 -24 37 -27
52 -27 122 0 104 26 165 99 234 68 64 89 74 260 116 76 19 160 45 185 58 25
13 50 23 55 22 6 -1 9 -32 7 -76z"/>
<path d="M15628 7473 c-20 -34 -143 -156 -184 -184 -71 -47 -230 -109 -281
-109 -36 0 -113 -21 -113 -31 0 -5 89 -9 197 -9 147 0 213 -4 261 -16 35 -9
64 -14 66 -13 7 11 86 347 86 367 0 30 -12 28 -32 -5z"/>
<path d="M10174 6219 c-23 -26 -9 -53 31 -57 42 -5 60 32 29 62 -21 21 -37 20
-60 -5z"/>
<path d="M12505 6228 c-34 -20 -44 -35 -56 -85 -7 -26 -13 -54 -15 -60 -2 -7
-15 -13 -29 -13 -14 0 -26 -4 -26 -10 -5 -30 -1 -35 26 -40 l30 -5 5 -175 5
-175 27 -3 28 -3 2 178 3 178 60 5 c58 5 61 7 57 40 -1 6 -27 10 -57 10 -49 0
-55 3 -60 23 -9 33 11 76 39 87 14 5 40 6 59 3 26 -4 36 -1 41 12 4 11 0 23
-11 31 -22 16 -101 18 -128 2z"/>
<path d="M15390 6226 c-6 -8 -10 -25 -8 -38 2 -19 9 -23 38 -23 29 0 36 4 38
23 4 28 -14 52 -38 52 -10 0 -23 -7 -30 -14z"/>
<path d="M15600 5950 l0 -290 30 0 30 0 0 290 0 290 -30 0 -30 0 0 -290z"/>
<path d="M14206 6203 c-40 -6 -101 -49 -115 -79 -6 -14 -11 -47 -11 -73 0 -77
45 -114 178 -146 100 -24 136 -50 140 -98 8 -93 -131 -125 -262 -60 -39 19
-51 21 -57 11 -15 -22 -10 -37 18 -55 46 -30 95 -43 169 -43 124 0 195 49 197
137 3 97 -34 126 -218 173 -61 16 -105 54 -105 91 0 72 90 111 195 83 87 -22
100 -22 100 0 0 31 -53 55 -130 60 -39 2 -83 2 -99 -1z"/>
<path d="M5050 6189 c0 -5 44 -81 97 -167 l97 -157 3 -80 c5 -112 9 -125 37
-125 31 0 36 15 36 117 0 77 2 88 30 128 17 24 30 46 30 48 0 3 32 55 70 116
39 62 70 116 70 121 0 6 -12 10 -28 10 -24 0 -35 -13 -97 -112 -39 -62 -76
-125 -84 -140 -23 -47 -24 -46 -135 140 -62 102 -71 112 -97 112 -16 0 -29 -5
-29 -11z"/>
<path d="M7077 6193 c-9 -8 -9 -496 -1 -517 3 -9 17 -16 30 -16 27 0 33 15 36
105 l3 60 111 6 c117 7 141 15 187 58 69 64 75 180 13 250 -43 49 -89 61 -237
61 -75 0 -139 -3 -142 -7z m256 -52 c49 -12 81 -41 97 -91 12 -35 11 -45 -5
-80 -28 -62 -54 -74 -177 -78 l-108 -4 0 124 c0 69 3 128 7 131 9 10 141 8
186 -2z"/>
<path d="M11140 6173 c-1 -67 -2 -423 -1 -466 1 -47 2 -48 29 -45 26 3 27 5
32 83 l5 80 111 6 c114 7 148 18 193 60 67 63 69 183 3 252 -46 48 -81 57
-233 57 l-139 0 0 -27z m262 -33 c40 -12 84 -57 94 -97 9 -36 -17 -103 -50
-127 -22 -17 -46 -21 -137 -24 l-109 -4 0 124 c0 69 3 128 7 131 10 11 154 8
195 -3z"/>
<path d="M8378 6118 c-3 -39 -6 -43 -33 -48 -22 -4 -30 -11 -30 -25 0 -14 9
-21 30 -25 l30 -5 5 -140 c3 -85 10 -149 18 -162 21 -37 53 -53 107 -53 54 0
75 12 75 43 0 17 -5 19 -45 13 -39 -6 -48 -4 -70 18 -25 25 -26 28 -23 153 l3
128 58 3 c53 3 57 5 57 27 0 22 -4 24 -57 27 l-58 3 -3 43 c-3 39 -5 42 -32
42 -27 0 -29 -3 -32 -42z"/>
<path d="M13598 6118 c-3 -37 -6 -43 -28 -46 -56 -8 -61 -49 -7 -54 l32 -3 5
-145 c5 -154 12 -179 57 -199 30 -14 98 -14 124 -1 10 6 19 20 19 32 0 18 -4
20 -41 15 -49 -6 -88 9 -95 37 -2 12 -3 75 -2 141 l3 120 58 3 c54 3 58 5 55
25 -3 19 -11 23 -58 27 l-55 5 -3 43 c-3 39 -5 42 -32 42 -27 0 -29 -3 -32
-42z"/>
<path d="M5662 6065 c-62 -19 -88 -39 -118 -90 -38 -66 -37 -159 3 -223 37
-59 97 -91 173 -91 137 -1 222 98 206 238 -10 86 -68 148 -158 170 -55 13 -52
13 -106 -4z m123 -59 c92 -39 109 -179 31 -255 -30 -29 -40 -33 -90 -33 -94
-1 -146 53 -146 150 0 114 101 181 205 138z"/>
<path d="M7678 6066 c-49 -13 -98 -41 -98 -55 0 -5 6 -14 14 -20 10 -9 24 -6
57 9 82 37 164 20 189 -39 21 -51 9 -61 -65 -61 -123 0 -185 -29 -204 -96 -12
-46 5 -90 47 -119 49 -33 140 -35 191 -4 27 16 36 18 42 7 5 -7 9 -17 9 -21 0
-5 10 -7 23 -5 21 3 22 7 25 128 2 69 0 144 -3 167 -8 55 -47 94 -108 111 -56
14 -59 14 -119 -2z m161 -225 c20 -13 6 -73 -23 -100 -26 -24 -89 -37 -130
-27 -74 18 -75 111 -1 129 35 8 139 7 154 -2z"/>
<path d="M8840 6069 c-19 -6 -46 -19 -61 -30 -28 -20 -39 -16 -39 13 0 11 -7
18 -17 18 -42 -1 -44 -8 -41 -211 l3 -194 27 -3 26 -3 4 128 c3 138 13 171 59
205 37 28 99 34 137 14 53 -27 62 -58 62 -211 l0 -135 31 0 30 0 -3 159 c-3
143 -5 163 -24 188 -38 52 -128 81 -194 62z"/>
<path d="M9310 6067 c-83 -20 -151 -115 -149 -208 1 -76 56 -155 127 -185 98
-40 278 16 231 72 -10 12 -17 11 -44 -5 -33 -19 -69 -25 -134 -22 -39 1 -111
66 -111 100 0 20 4 21 149 21 82 0 156 3 165 6 20 8 21 60 1 107 -19 46 -78
103 -114 110 -16 3 -39 8 -52 11 -13 2 -44 -1 -69 -7z m127 -67 c35 -21 68
-74 59 -96 -4 -11 -31 -14 -120 -14 -63 0 -121 3 -130 6 -34 13 -8 71 48 105
40 24 102 24 143 -1z"/>
<path d="M10532 6065 c-24 -7 -52 -21 -63 -31 -18 -16 -19 -15 -29 10 -7 20
-16 27 -33 24 -22 -3 -22 -3 -22 -203 l0 -200 28 -3 27 -3 0 123 c0 140 12
177 69 215 39 27 77 29 127 8 53 -22 64 -60 64 -215 l0 -130 30 0 30 0 0 143
c0 128 -2 147 -22 187 -36 70 -123 102 -206 75z"/>
<path d="M11770 6066 c-78 -25 -120 -70 -141 -148 -25 -94 30 -206 120 -244
67 -28 180 -13 224 30 19 20 20 25 8 45 -8 12 -15 11 -43 -6 -75 -44 -151 -38
-209 17 -22 21 -39 46 -39 58 0 22 3 22 149 22 82 0 156 3 165 6 40 15 0 146
-58 188 -31 22 -100 47 -127 45 -8 -1 -30 -6 -49 -13z m127 -66 c35 -21 68
-74 59 -96 -4 -11 -32 -14 -131 -14 -138 0 -148 5 -123 57 32 66 129 93 195
53z"/>
<path d="M12784 6062 c-55 -19 -66 -28 -103 -80 -28 -40 -39 -133 -21 -186 27
-84 103 -135 201 -136 63 0 115 18 144 49 17 19 17 23 3 37 -13 14 -19 13 -52
-7 -48 -28 -131 -30 -176 -3 -33 19 -74 80 -64 96 3 4 75 8 159 8 175 0 179 2
166 77 -14 74 -68 131 -146 152 -51 14 -50 14 -111 -7z m137 -65 c40 -27 65
-67 56 -90 -5 -14 -24 -17 -126 -16 -135 0 -150 7 -125 54 37 72 129 97 195
52z"/>
<path d="M13262 6067 c-23 -7 -58 -25 -77 -40 -52 -41 -69 -81 -69 -162 0 -62
3 -76 29 -114 63 -93 195 -120 289 -61 33 22 46 35 42 46 -3 9 -6 18 -6 20 0
11 -49 2 -60 -11 -7 -8 -29 -19 -49 -25 -54 -14 -110 2 -148 44 -30 32 -33 42
-33 96 0 76 19 114 70 140 59 30 122 24 172 -18 18 -15 58 -8 58 10 0 23 -60
65 -110 76 -59 14 -51 14 -108 -1z"/>
<path d="M14718 6064 c-26 -8 -50 -19 -53 -24 -10 -17 -32 -11 -38 10 -3 12
-14 20 -26 20 -18 0 -20 -7 -23 -67 -2 -38 -2 -130 0 -205 3 -137 3 -138 26
-138 13 0 27 7 30 16 3 9 6 71 6 138 0 110 2 126 21 150 42 53 104 69 159 41
51 -26 60 -59 60 -210 l0 -135 30 0 30 0 0 124 c0 136 12 184 54 211 35 23 91
30 126 15 49 -20 60 -54 60 -187 0 -143 5 -163 36 -163 31 0 38 41 31 190 -7
159 -26 193 -126 220 -53 14 -136 -7 -171 -45 l-24 -25 -25 25 c-25 23 -100
56 -125 54 -6 0 -32 -7 -58 -15z"/>
<path d="M15901 6064 c-159 -50 -190 -271 -52 -369 58 -41 158 -48 225 -16 50
25 64 47 42 69 -12 13 -18 12 -46 -8 -41 -29 -132 -32 -179 -4 -32 19 -76 86
-64 98 4 3 73 6 154 6 81 0 154 3 163 6 9 4 16 18 16 34 0 80 -63 161 -144
185 -58 17 -57 17 -115 -1z m130 -63 c37 -23 71 -74 63 -96 -5 -12 -29 -15
-135 -15 -128 0 -129 0 -129 23 0 80 124 134 201 88z"/>
<path d="M16318 6064 c-77 -24 -114 -89 -85 -150 19 -39 59 -62 130 -74 101
-16 125 -35 113 -85 -12 -45 -114 -56 -201 -20 -59 25 -78 -26 -20 -55 41 -20
167 -26 208 -9 57 22 77 48 77 96 0 80 -19 96 -145 124 -55 12 -85 25 -97 40
-24 28 -23 36 8 64 31 29 84 33 159 13 39 -10 47 -10 55 2 15 24 -15 46 -77
59 -68 13 -66 13 -125 -5z"/>
<path d="M6034 6045 c-3 -14 -5 -84 -2 -155 4 -143 11 -162 79 -208 29 -20 44
-23 101 -20 50 3 75 9 98 26 l30 23 10 -26 c6 -15 17 -25 30 -25 19 0 20 6 20
205 0 216 0 216 -44 199 -14 -5 -16 -27 -16 -139 l0 -134 -34 -35 c-31 -33
-38 -36 -93 -36 -53 0 -62 3 -88 30 -28 29 -28 32 -34 172 -6 138 -7 143 -28
146 -17 3 -24 -3 -29 -23z"/>
<path d="M6556 6055 c-9 -25 -7 -368 3 -383 5 -8 17 -12 27 -10 17 3 20 17 25
133 8 158 4 138 34 173 14 17 44 35 70 43 37 11 45 18 45 38 0 23 -2 23 -47
17 -26 -3 -56 -15 -68 -26 -27 -26 -33 -25 -37 3 -4 27 -42 36 -52 12z"/>
<path d="M8056 6054 c-8 -20 -8 -342 0 -371 4 -13 14 -23 23 -23 35 0 41 21
41 151 0 121 1 129 25 157 14 17 44 35 70 43 37 11 45 18 45 38 0 23 -2 23
-47 17 -25 -3 -54 -13 -63 -21 -23 -20 -37 -19 -43 5 -6 24 -42 27 -51 4z"/>
<path d="M9671 6048 c-13 -34 -13 -345 -1 -368 13 -24 45 -26 54 -4 3 9 6 65
6 126 0 131 13 169 71 198 21 11 48 20 59 20 16 0 21 5 18 23 -3 19 -9 22 -44
21 -25 0 -53 -9 -71 -22 -32 -23 -43 -20 -43 10 0 27 -39 23 -49 -4z"/>
<path d="M10180 5864 l0 -205 28 3 27 3 3 194 c3 203 1 210 -40 211 -17 0 -18
-16 -18 -206z"/>
<path d="M12134 6057 c-2 -7 -3 -98 -2 -202 3 -177 4 -190 22 -193 30 -6 36
16 36 136 0 136 13 173 71 202 21 11 48 20 59 20 16 0 21 5 18 23 -3 19 -9 22
-44 21 -25 0 -53 -9 -71 -22 -32 -23 -43 -20 -43 10 0 21 -38 25 -46 5z"/>
<path d="M15395 6058 c-3 -8 -4 -99 -3 -203 l3 -190 25 0 25 0 0 200 c0 200 0
200 -23 203 -12 2 -24 -3 -27 -10z"/>
</g>
</svg>